<svg width="43" height="51" viewBox="0 0 43 51" fill="none" xmlns="http://www.w3.org/2000/svg">
<path fill-rule="evenodd" clip-rule="evenodd" d="M21.5 50.7083C7.75 44.5829 0.875 38.4718 0.875 32.375V9.45833C0.875 7.69927 1.55012 7.29045 3.41858 6.159C3.98431 5.81642 4.65943 5.4076 5.45833 4.875C5.82911 4.62782 13.624 0.291668 21.5 0.291668C28.3641 0.291668 34.1042 2.58333 37.5417 4.875C38.3406 5.4076 39.0157 5.81642 39.5814 6.159C41.4499 7.29045 42.125 7.69927 42.125 9.45833C42.1702 9.95615 42.148 20.5427 42.1338 27.3205V27.3212L42.1338 27.3272C42.1289 29.6357 42.125 31.5016 42.125 32.375C42.125 38.4861 35.25 44.5972 21.5 50.7083ZM37.5417 32.375C37.5417 31.8472 37.543 30.9629 37.5459 29.5212L37.5551 25.0449C37.5581 23.5968 37.5604 22.3541 37.5624 21.1683C37.5708 16.0529 37.5686 11.6625 37.5636 10.3046L37.2489 10.1093C36.5078 9.64955 35.5419 9.0503 34.9993 8.68856C31.6162 6.43314 26.6796 4.875 21.5 4.875C16.5456 4.875 10.1073 7.28418 8.00071 8.68856C7.45814 9.05028 6.49228 9.64947 5.75123 10.1092L5.45833 10.291V32.375C5.45833 35.8319 10.5667 40.5534 21.5021 45.6712C32.4362 40.5648 37.5417 35.8451 37.5417 32.375ZM29.0462 17.0046L19.2083 26.8424L13.9538 21.5879L10.7129 24.8288L19.2083 33.3242L32.2871 20.2455L29.0462 17.0046Z" fill="#2BA600"/>
</svg>
