<svg width="24" height="24" viewBox="0 0 25 25" fill="none" xmlns="http://www.w3.org/2000/svg">
<path d="M16.5563 16.7453C16.9955 16.4105 17.0801 15.783 16.7453 15.3438C16.4105 14.9046 15.7831 14.8199 15.3438 15.1547L16.5563 16.7453ZM11 17.6667V18.6667C11.0055 18.6667 11.0109 18.6666 11.0164 18.6665L11 17.6667ZM1.83337 11L0.952218 10.5272C0.798584 10.8135 0.793635 11.1566 0.938947 11.4472L1.83337 11ZM6.65694 6.84478C7.09588 6.5096 7.18 5.88204 6.84482 5.4431C6.50964 5.00416 5.88208 4.92004 5.44314 5.25522L6.65694 6.84478ZM9.02213 3.55965C8.48438 3.68553 8.15049 4.2235 8.27636 4.76125C8.40223 5.299 8.9402 5.63289 9.47795 5.50702L9.02213 3.55965ZM11 4.33333L10.9977 5.33333H11V4.33333ZM20.1667 11L21.0486 11.4714C21.2015 11.1854 21.2062 10.8429 21.0611 10.5528L20.1667 11ZM17.6016 13.0145C17.246 13.4371 17.3003 14.0679 17.7229 14.4235C18.1454 14.7791 18.7763 14.7248 19.1319 14.3022L17.6016 13.0145ZM13.4983 13.4484C13.8748 13.0443 13.8525 12.4116 13.4484 12.0351C13.0444 11.6586 12.4116 11.6809 12.0351 12.0849L13.4983 13.4484ZM9.9151 9.96495C10.3192 9.58844 10.3415 8.95567 9.96498 8.55161C9.58848 8.14755 8.95571 8.12522 8.55165 8.50172L9.9151 9.96495ZM15.3438 15.1547C14.0891 16.1111 12.5612 16.641 10.9837 16.6668L11.0164 18.6665C13.0207 18.6338 14.962 17.9605 16.5563 16.7453L15.3438 15.1547ZM11 16.6667C8.48288 16.6667 6.43723 15.2264 4.95874 13.6494C4.22862 12.8706 3.66568 12.088 3.28539 11.4991C3.09587 11.2057 2.95334 10.9629 2.85957 10.7962C2.81273 10.7129 2.77817 10.6488 2.75611 10.6072C2.74509 10.5863 2.73719 10.5711 2.73246 10.5619C2.7301 10.5573 2.72853 10.5542 2.72775 10.5527C2.72736 10.5519 2.72717 10.5515 2.72718 10.5515C2.72718 10.5516 2.72724 10.5517 2.72734 10.5519C2.72739 10.552 2.72751 10.5522 2.72753 10.5523C2.72766 10.5525 2.7278 10.5528 1.83337 11C0.938947 11.4472 0.939113 11.4475 0.939291 11.4479C0.939368 11.4481 0.93956 11.4484 0.939714 11.4487C0.940021 11.4494 0.94038 11.4501 0.940791 11.4509C0.941613 11.4525 0.942641 11.4546 0.943876 11.457C0.946347 11.4619 0.949643 11.4683 0.953764 11.4764C0.962004 11.4924 0.973543 11.5146 0.988356 11.5426C1.01797 11.5986 1.06073 11.6777 1.11642 11.7767C1.22773 11.9746 1.39119 12.2527 1.60531 12.5842C2.03231 13.2454 2.66729 14.1294 3.49967 15.0173C5.14619 16.7736 7.68387 18.6667 11 18.6667V16.6667ZM2.71453 11.4728C3.68369 9.66672 5.02788 8.08875 6.65694 6.84478L5.44314 5.25522C3.58743 6.67227 2.05621 8.46978 0.952218 10.5272L2.71453 11.4728ZM9.47795 5.50702C9.97609 5.39042 10.4861 5.33213 10.9977 5.33333L11.0024 3.33334C10.3358 3.33177 9.67121 3.40772 9.02213 3.55965L9.47795 5.50702ZM11 5.33333C13.5172 5.33333 15.5629 6.77356 17.0413 8.35061C17.7715 9.1294 18.3344 9.91202 18.7147 10.5009C18.9042 10.7943 19.0467 11.0371 19.1405 11.2038C19.1874 11.2871 19.2219 11.3512 19.244 11.3928C19.255 11.4137 19.2629 11.4289 19.2676 11.4381C19.27 11.4427 19.2716 11.4458 19.2723 11.4473C19.2727 11.4481 19.2729 11.4485 19.2729 11.4485C19.2729 11.4485 19.2728 11.4483 19.2727 11.4481C19.2727 11.448 19.2726 11.4478 19.2725 11.4478C19.2724 11.4475 19.2723 11.4472 20.1667 11C21.0611 10.5528 21.061 10.5525 21.0608 10.5521C21.0607 10.5519 21.0605 10.5516 21.0604 10.5513C21.0601 10.5506 21.0597 10.5499 21.0593 10.5491C21.0585 10.5475 21.0574 10.5454 21.0562 10.543C21.0537 10.5381 21.0504 10.5317 21.0463 10.5236C21.0381 10.5076 21.0265 10.4854 21.0117 10.4574C20.9821 10.4014 20.9394 10.3223 20.8837 10.2233C20.7723 10.0254 20.6089 9.74735 20.3948 9.41581C19.9678 8.75465 19.3328 7.8706 18.5004 6.98273C16.8539 5.22644 14.3162 3.33333 11 3.33333V5.33333ZM19.2848 10.5286C18.8118 11.4135 18.2476 12.2467 17.6016 13.0145L19.1319 14.3022C19.8676 13.4279 20.51 12.4791 21.0486 11.4714L19.2848 10.5286ZM12.0351 12.0849C11.6612 12.4863 11.098 12.6514 10.5665 12.5157L10.0716 14.4535C11.3117 14.7702 12.6258 14.3848 13.4983 13.4484L12.0351 12.0849ZM10.5665 12.5157C10.0351 12.38 9.62005 11.965 9.48433 11.4335L7.54652 11.9284C7.86322 13.1685 8.83155 14.1368 10.0716 14.4535L10.5665 12.5157ZM9.48433 11.4335C9.3486 10.9021 9.51379 10.3389 9.9151 9.96495L8.55165 8.50172C7.61527 9.37425 7.22982 10.6883 7.54652 11.9284L9.48433 11.4335Z" fill="#142957"/>
<path d="M1.83337 1.83334L20.1667 20.1667" stroke="#142957" stroke-width="2" stroke-linecap="round" stroke-linejoin="round"/>
</svg>
