<svg width="218" height="138" viewBox="0 0 218 138" fill="none" xmlns="http://www.w3.org/2000/svg">
<path d="M217.98 0H0V137.24H217.98V0Z" fill="#2B657D"/>
<path d="M217.98 0H108.99V137.24H217.98V0Z" fill="#2F8269"/>
<path d="M51.06 115.44C44.2 115.44 38.21 113.87 33.06 110.74C27.92 107.61 23.93 103.26 21.09 97.7C18.26 92.14 16.84 85.76 16.84 78.55V26.06H39.18V76.78C39.18 83.4 40.81 88.37 44.06 91.68C47.31 94.99 51.9499 96.64 57.9799 96.64C64.84 96.64 70.16 94.36 73.94 89.81C77.72 85.26 79.61 78.9 79.61 70.75V26.06H101.95V114.02H79.96V102.49H76.7599C75.3499 105.45 72.68 108.34 68.78 111.18C64.89 114.02 58.98 115.44 51.06 115.44Z" fill="white"/>
<path d="M161.23 116.42C152.72 116.42 145 114.65 138.08 111.1C131.17 107.55 125.7 102.41 121.68 95.67C117.66 88.93 115.65 80.77 115.65 71.2V68.72C115.65 59.14 117.66 50.99 121.68 44.25C125.7 37.51 131.17 32.37 138.08 28.82C145 25.27 152.71 23.5 161.23 23.5C169.62 23.5 176.84 24.98 182.86 27.93C188.89 30.89 193.76 34.94 197.49 40.08C201.21 45.22 203.67 51.05 204.85 57.55L183.21 62.16C182.74 58.61 181.68 55.42 180.02 52.58C178.36 49.74 176.03 47.5 173.02 45.84C170 44.19 166.25 43.36 161.76 43.36C157.26 43.36 153.22 44.34 149.61 46.29C146 48.24 143.17 51.14 141.1 54.98C139.03 58.82 138 63.52 138 69.08V70.85C138 76.41 139.03 81.11 141.1 84.95C143.17 88.79 146 91.69 149.61 93.64C153.22 95.59 157.26 96.57 161.76 96.57C168.5 96.57 173.61 94.83 177.1 91.34C180.58 87.85 182.8 83.27 183.75 77.6L205.38 82.74C203.84 89.01 201.21 94.71 197.49 99.85C193.76 104.99 188.89 109.04 182.86 112C176.84 114.94 169.62 116.42 161.23 116.42Z" fill="white"/>
</svg>
