<svg width="37" height="47" viewBox="0 0 37 47" fill="none" xmlns="http://www.w3.org/2000/svg">
<path fill-rule="evenodd" clip-rule="evenodd" d="M7.0415 12.0417V18.9167H4.74984C2.30153 18.9167 0.166504 20.6959 0.166504 23.1181V42.2153C0.166504 44.6375 2.30153 46.4167 4.74984 46.4167H32.2498C34.6981 46.4167 36.8332 44.6375 36.8332 42.2153V23.1181C36.8332 20.6959 34.6981 18.9167 32.2498 18.9167H29.9582V12.0417C29.9582 5.71344 24.8281 0.583374 18.4998 0.583374C12.1716 0.583374 7.0415 5.71344 7.0415 12.0417ZM25.3748 12.0417V18.9167H11.6248V12.0417C11.6248 8.24475 14.7029 5.16671 18.4998 5.16671C22.2968 5.16671 25.3748 8.24475 25.3748 12.0417ZM4.74984 41.8334V23.5H32.2498V41.8334H4.74984ZM20.7915 32.6667C20.7915 33.9324 19.7655 34.9584 18.4998 34.9584C17.2342 34.9584 16.2082 33.9324 16.2082 32.6667C16.2082 31.4011 17.2342 30.375 18.4998 30.375C19.7655 30.375 20.7915 31.4011 20.7915 32.6667Z" fill="#2BA600"/>
</svg>
