<svg width="51" height="51" viewBox="0 0 51 51" fill="none" xmlns="http://www.w3.org/2000/svg">
<path fill-rule="evenodd" clip-rule="evenodd" d="M25.5001 50.7083C11.5779 50.7083 0.291748 39.4222 0.291748 25.5C0.291748 11.5778 11.5779 0.291668 25.5001 0.291668C39.4223 0.291668 50.7084 11.5778 50.7084 25.5C50.7084 39.4222 39.4223 50.7083 25.5001 50.7083ZM25.5001 46.125C36.891 46.125 46.1251 36.8909 46.1251 25.5C46.1251 14.1091 36.891 4.875 25.5001 4.875C14.1092 4.875 4.87508 14.1091 4.87508 25.5C4.87508 36.8909 14.1092 46.125 25.5001 46.125ZM33.0463 17.0045L20.9167 29.1341L15.6622 23.8795L12.4213 27.1205L20.9167 35.6159L36.2872 20.2455L33.0463 17.0045Z" fill="#2BA600"/>
</svg>
